<!--?xml version="1.0" standalone="no"?-->

<svg version="1.0" xmlns="http://www.w3.org/2000/svg" width="300.000000pt" height="300.000000pt" viewBox="0 0 300.000000 300.000000" preserveAspectRatio="xMidYMid meet">
<g transform="translate(0.000000,300.000000) scale(0.100000,-0.100000)" fill="#0D0D0D" stroke="none">
<path class="node" id="node1" d="M750 2245 l-745 -745 748 -748 747 -747 747 747 748 748 -745 745
c-410 410 -747 745 -750 745 -3 0 -340 -335 -750 -745z m815 225 l110 -110
-404 -404 -404 -404 112 -111 c61 -61 115 -111 119 -111 4 0 187 180 407 400
l400 400 343 -343 342 -342 -516 -513 c-283 -281 -519 -512 -523 -512 -3 0
-56 50 -116 110 l-110 110 405 405 405 405 -110 110 c-60 60 -114 110 -120
110 -5 0 -188 -178 -405 -395 -217 -217 -399 -395 -405 -395 -6 0 -161 150
-344 334 -308 308 -333 336 -320 353 21 26 1013 1013 1019 1013 3 0 55 -50
115 -110z"></path>
</g>
<g transform="translate(0.000000,300.000000) scale(0.100000,-0.100000)" fill="#A0A0A0" stroke="none">

<path class="node" id="node3" d="M945 2082 c-275 -273 -506 -505 -514 -515 -13 -17 12 -45 320 -353
183 -184 338 -334 344 -334 6 0 188 178 405 395 217 217 400 395 405 395 6 0
60 -50 120 -110 l110 -110 -405 -405 -405 -405 110 -110 c60 -60 113 -110 116
-110 4 0 240 231 523 512 l516 513 -342 342 -343 343 -400 -400 c-220 -220
-403 -400 -407 -400 -4 0 -58 50 -119 111 l-112 111 404 404 404 404 -110 110
c-60 60 -112 110 -115 110 -3 0 -230 -224 -505 -498z"></path>
</g>
</svg>